<svg width="27" height="26" viewBox="0 0 27 26" fill="none" xmlns="http://www.w3.org/2000/svg">
<path d="M21.33 20H10.53C9.87099 20.0013 9.22989 19.7856 8.70574 19.3861C8.18158 18.9867 7.80353 18.4258 7.63 17.79L5 8.26C4.95955 8.11168 4.95384 7.95602 4.98333 7.80513C5.01281 7.65425 5.07669 7.51219 5.17 7.39C5.2672 7.2635 5.39327 7.16209 5.53766 7.09425C5.68204 7.0264 5.84057 6.99409 6 7H25C25.1469 6.99976 25.2921 7.0319 25.4251 7.09412C25.5582 7.15634 25.676 7.24712 25.77 7.36C25.8628 7.47301 25.9298 7.60501 25.966 7.74669C26.0023 7.88837 26.0071 8.03628 25.98 8.18L24.28 17.54C24.1537 18.2303 23.7893 18.8546 23.2503 19.304C22.7113 19.7535 22.0318 19.9998 21.33 20ZM7.33 9L9.58 17.26C9.6386 17.4782 9.76934 17.6701 9.95092 17.8044C10.1325 17.9388 10.3542 18.0077 10.58 18H21.38C21.6168 18.0039 21.8473 17.9236 22.0304 17.7734C22.2135 17.6232 22.3374 17.413 22.38 17.18L23.8 9H7.33Z" fill="#25A53C"/>
<path d="M6 9C5.77555 9.0083 5.55485 8.9408 5.37344 8.80837C5.19203 8.67595 5.06049 8.48631 5 8.27L3.45 2.73C3.38951 2.5137 3.25797 2.32406 3.07656 2.19163C2.89515 2.05921 2.67445 1.9917 2.45 2H1C0.734784 2 0.48043 1.89465 0.292893 1.70711C0.105357 1.51957 0 1.26522 0 1C0 0.734787 0.105357 0.480433 0.292893 0.292896C0.48043 0.10536 0.734784 2.9997e-06 1 2.9997e-06H2.49C3.1434 -0.00092069 3.77923 0.211501 4.30086 0.604982C4.8225 0.998462 5.20141 1.55149 5.38 2.18L7 7.73C7.04065 7.86132 7.05379 7.99961 7.0386 8.13623C7.0234 8.27285 6.98021 8.40487 6.9117 8.52405C6.8432 8.64323 6.75086 8.747 6.64045 8.8289C6.53004 8.91079 6.40393 8.96904 6.27 9C6.18059 9.01456 6.08941 9.01456 6 9Z" fill="#25A53C"/>
<path d="M13 26C12.6044 26 12.2178 25.8827 11.8889 25.6629C11.56 25.4432 11.3036 25.1308 11.1522 24.7654C11.0009 24.3999 10.9613 23.9978 11.0384 23.6098C11.1156 23.2219 11.3061 22.8655 11.5858 22.5858C11.8655 22.3061 12.2219 22.1156 12.6098 22.0384C12.9978 21.9613 13.3999 22.0009 13.7654 22.1522C14.1308 22.3036 14.4432 22.56 14.6629 22.8889C14.8827 23.2178 15 23.6044 15 24C15 24.5304 14.7893 25.0391 14.4142 25.4142C14.0391 25.7893 13.5304 26 13 26Z" fill="#25A53C"/>
<path d="M19 26C18.6044 26 18.2178 25.8827 17.8889 25.6629C17.56 25.4432 17.3036 25.1308 17.1522 24.7654C17.0009 24.3999 16.9613 23.9978 17.0384 23.6098C17.1156 23.2219 17.3061 22.8655 17.5858 22.5858C17.8655 22.3061 18.2219 22.1156 18.6098 22.0384C18.9978 21.9613 19.3999 22.0009 19.7654 22.1522C20.1308 22.3036 20.4432 22.56 20.6629 22.8889C20.8827 23.2178 21 23.6044 21 24C21 24.5304 20.7893 25.0391 20.4142 25.4142C20.0391 25.7893 19.5304 26 19 26Z" fill="#25A53C"/>
<path d="M21.875 18H9.125C8.56141 18 8.02091 17.5259 7.6224 16.682C7.22388 15.8381 7 14.6935 7 13.5C7 12.3065 7.22388 11.1619 7.6224 10.318C8.02091 9.47411 8.56141 9 9.125 9H21.875C22.4386 9 22.9791 9.47411 23.3776 10.318C23.7761 11.1619 24 12.3065 24 13.5C24 14.6935 23.7761 15.8381 23.3776 16.682C22.9791 17.5259 22.4386 18 21.875 18Z" fill="#25A53C"/>
<circle cx="19.5" cy="10.5" r="7" fill="#25A53C" stroke="#DCDCDC"/>
<g clip-path="url(#clip0_24_716)">
<path d="M24.1196 8.9823L24.4732 8.62874L24.1196 8.2752L23.6778 7.83332L23.3242 7.47977L22.9707 7.83332L18.5539 12.2501L17.04 10.7361L16.6864 10.3826L16.3328 10.7361L15.9005 11.1685L15.5469 11.522L15.9005 11.8756L18.21 14.185L18.5636 14.5385L18.9171 14.185L24.1196 8.9823Z" fill="white" stroke="white"/>
</g>
<defs>
<clipPath id="clip0_24_716">
<rect width="10" height="10" fill="white" transform="translate(16 5)"/>
</clipPath>
</defs>
</svg>
