<svg width="35" height="35" viewBox="0 0 35 35" fill="none" xmlns="http://www.w3.org/2000/svg">
<rect x="0.5" y="0.5" width="34" height="34" rx="4.5" stroke="#6190B9"/>
<circle cx="14.5" cy="20.5" r="2.5" fill="#6190B9"/>
<circle cx="14.5" cy="27.5" r="2.5" fill="#6190B9"/>
<circle cx="14.5" cy="13.5" r="2.5" fill="#6190B9"/>
<circle cx="21.5" cy="20.5" r="2.5" fill="#6190B9"/>
<circle cx="21.5" cy="27.5" r="2.5" fill="#6190B9"/>
<circle cx="21.5" cy="13.5" r="2.5" fill="#6190B9"/>
<circle cx="28.5" cy="20.5" r="2.5" fill="#6190B9"/>
<circle cx="28.5" cy="27.5" r="2.5" fill="#6190B9"/>
<circle cx="28.5" cy="13.5" r="2.5" fill="#6190B9"/>
<circle cx="14.5" cy="6.5" r="2.5" transform="rotate(-90 14.5 6.5)" fill="#6190B9"/>
<circle cx="21.5" cy="6.5" r="2.5" transform="rotate(-90 21.5 6.5)" fill="#6190B9"/>
<circle cx="28.5" cy="6.5" r="2.5" transform="rotate(-90 28.5 6.5)" fill="#6190B9"/>
<circle cx="7.5" cy="6.5" r="2.5" transform="rotate(-90 7.5 6.5)" fill="#6190B9"/>
<circle cx="7.5" cy="20.5" r="2.5" fill="#6190B9"/>
<circle cx="7.5" cy="27.5" r="2.5" fill="#6190B9"/>
<circle cx="7.5" cy="13.5" r="2.5" fill="#6190B9"/>
</svg>
