<svg width="17" height="16" viewBox="0 0 17 16" fill="none" xmlns="http://www.w3.org/2000/svg">
<path d="M1.36554 9.01477H2.64977V14.4951C2.64977 14.818 2.89745 15.0823 3.20016 15.0823H6.96111C7.26382 15.0823 7.51149 14.818 7.51149 14.4951V10.4827H9.80474V14.4951C9.80474 14.818 10.0524 15.0823 10.3551 15.0823H13.9326C14.2353 15.0823 14.483 14.818 14.483 14.4951V9.01477H16.0424C16.2626 9.01477 16.4644 8.86798 16.5469 8.65269C16.6295 8.4374 16.5836 8.18295 16.4277 8.01657L9.25436 0.256064C9.04337 0.0309684 8.69481 0.0211936 8.48382 0.246289L0.989468 8.0068C0.824353 8.17317 0.778477 8.42759 0.861035 8.65269C0.943592 8.87775 1.14539 9.01477 1.36554 9.01477ZM8.85073 1.49891L14.7215 7.84042H13.9326C13.6299 7.84042 13.3822 8.10465 13.3822 8.42759V13.9079H10.9055V9.89554C10.9055 9.57259 10.6578 9.30836 10.3551 9.30836H6.96111C6.6584 9.30836 6.41073 9.57259 6.41073 9.89554V13.9079H3.75054V8.42759C3.75054 8.10465 3.50287 7.84042 3.20016 7.84042H2.72317L8.85073 1.49891Z" fill="#3E77AA"/>
</svg>
