<svg width="16" height="16" viewBox="0 0 16 16" fill="none" xmlns="http://www.w3.org/2000/svg">
<path d="M14.8957 14.3987L9.21796 8.77367C9.89255 8.01355 10.3331 7.0747 10.4867 6.07007C10.6402 5.06545 10.5002 4.03785 10.0835 3.11093C9.66679 2.184 8.99109 1.39724 8.13774 0.845299C7.28438 0.293362 6.28972 -0.000234007 5.27342 -0.000162713C4.58062 -0.0020958 3.89431 0.133421 3.25424 0.398542C2.61417 0.663664 2.03305 1.05312 1.54452 1.54437C0.807006 2.28187 0.304752 3.22151 0.101271 4.24447C-0.102209 5.26742 0.00222267 6.32774 0.40136 7.29134C0.800498 8.25494 1.47642 9.07854 2.34364 9.65799C3.21086 10.2374 4.23043 10.5467 5.27342 10.5467C6.53816 10.5499 7.76125 10.0949 8.71639 9.26585L14.4012 14.8979C14.4335 14.9323 14.4725 14.9598 14.5157 14.9788C14.5589 14.9978 14.6055 15.0079 14.6527 15.0085C14.6999 15.0091 14.7467 15.0002 14.7904 14.9823C14.8341 14.9644 14.8737 14.9379 14.9069 14.9043C14.9401 14.8708 14.9663 14.8309 14.9837 14.7871C15.0012 14.7432 15.0097 14.6963 15.0086 14.6491C15.0076 14.6019 14.997 14.5554 14.9776 14.5124C14.9582 14.4694 14.9304 14.4307 14.8957 14.3987ZM2.04139 8.50531C1.18445 7.64823 0.703033 6.48586 0.703033 5.27386C0.703033 4.06186 1.18445 2.89949 2.04139 2.04242C2.89843 1.18523 4.06087 0.703603 5.27301 0.703493C5.8732 0.703438 6.46752 0.8216 7.02205 1.05123C7.57657 1.28086 8.08043 1.61747 8.50487 2.04183C8.92931 2.46619 9.266 2.96999 9.49574 3.52447C9.72547 4.07896 9.84374 4.67326 9.84379 5.27345C9.84385 5.87364 9.72569 6.46796 9.49605 7.02248C9.26642 7.57701 8.92982 8.08087 8.50546 8.50531C7.64838 9.36225 6.48601 9.84367 5.27401 9.84367C4.06201 9.84367 2.89964 9.36225 2.04257 8.50531H2.04139Z" fill="#757575"/>
</svg>
