<svg width="95" height="35" viewBox="0 0 95 35" fill="none" xmlns="http://www.w3.org/2000/svg">
<g clip-path="url(#clip0_57_1367)">
<path d="M48.6556 11.5926L53.1393 11.3028C53.2416 12.0359 53.4291 12.5814 53.736 12.9735C54.2304 13.5872 54.9123 13.8941 55.8159 13.8941C56.4808 13.8941 57.0093 13.7407 57.3672 13.4168C57.7082 13.1611 57.9128 12.7519 57.9128 12.3257C57.9128 11.9165 57.7253 11.5244 57.4014 11.2687C57.0604 10.9618 56.2591 10.6549 54.9976 10.3822C52.9347 9.92189 51.4515 9.30813 50.5821 8.52392C49.7126 7.79088 49.2182 6.71682 49.2523 5.57459C49.2523 4.79037 49.491 4.00615 49.9342 3.35832C50.4457 2.62525 51.1447 2.04561 51.98 1.72169C52.8836 1.32958 54.1451 1.125 55.7306 1.125C57.6741 1.125 59.1574 1.48302 60.1802 2.21609C61.2031 2.93211 61.8169 4.09139 62.0044 5.67688L57.5718 5.9326C57.4525 5.25068 57.2138 4.75627 56.8217 4.43235C56.4296 4.10844 55.9182 3.95501 55.2533 3.95501C54.7077 3.95501 54.2986 4.07435 54.0258 4.29597C53.7701 4.50055 53.5996 4.80742 53.6166 5.14838C53.6166 5.40411 53.7531 5.64278 53.9576 5.79621C54.1792 6.0008 54.7077 6.18833 55.5431 6.3588C57.6059 6.80206 59.0721 7.2453 59.9756 7.70562C60.8792 8.16594 61.5271 8.72853 61.9191 9.39339C62.3283 10.0753 62.5329 10.8595 62.5158 11.6608C62.5158 12.6155 62.2431 13.5702 61.6975 14.3714C61.1349 15.2068 60.3507 15.8547 59.4301 16.2468C58.4583 16.673 57.2309 16.8946 55.7647 16.8946C53.1734 16.8946 51.3834 16.4002 50.3775 15.3944C49.3716 14.3885 48.775 13.127 48.6556 11.5926ZM1.07404 16.6389V1.39778H8.93326C10.3824 1.39778 11.5076 1.51711 12.2747 1.77284C13.0248 2.01151 13.6897 2.5059 14.133 3.17079C14.6273 3.90386 14.866 4.75627 14.849 5.64278C14.9001 7.14303 14.133 8.57509 12.8203 9.32521C12.3088 9.61501 11.7462 9.81962 11.1666 9.92189C11.5928 10.0412 12.019 10.2458 12.3941 10.4845C12.6839 10.7232 12.9226 10.9959 13.1442 11.2858C13.3999 11.5756 13.6215 11.8995 13.809 12.2404L16.0935 16.656H10.7404L8.21723 11.9676C7.89334 11.371 7.62055 10.9789 7.36484 10.7914C7.02387 10.5527 6.61471 10.4333 6.20556 10.4333H5.7964V16.6219H1.07404V16.6389ZM5.7964 7.56926H7.79107C8.21723 7.53517 8.62638 7.46692 9.03553 7.36465C9.34241 7.31348 9.6152 7.14303 9.80273 6.8873C10.263 6.27357 10.1949 5.40411 9.63228 4.87561C9.3254 4.61989 8.72872 4.4835 7.87626 4.4835H5.7964V7.56926ZM0 29.6978L4.48368 29.408C4.58597 30.1411 4.7735 30.6866 5.08037 31.0788C5.55772 31.6925 6.2567 32.0164 7.16023 32.0164C7.82516 32.0164 8.35366 31.863 8.71164 31.539C9.05261 31.2663 9.25715 30.8742 9.25715 30.4479C9.25715 30.0388 9.06962 29.6467 8.74573 29.391C8.40476 29.0841 7.60354 28.7772 6.32489 28.5044C4.26205 28.0441 2.77886 27.4304 1.9094 26.6462C1.03994 25.9131 0.545543 24.8391 0.57964 23.6968C0.57964 22.9126 0.818314 22.1284 1.26157 21.4806C1.77302 20.7475 2.47199 20.1679 3.30735 19.844C4.21091 19.4518 5.47248 19.2473 7.05796 19.2473C9.00144 19.2473 10.4847 19.6053 11.5076 20.3384C12.5304 21.0714 13.1271 22.2137 13.3146 23.7991L8.88209 24.0549C8.76281 23.373 8.52411 22.8785 8.13197 22.5547C7.75691 22.2307 7.22848 22.0773 6.56356 22.0943C6.01803 22.0943 5.60886 22.2137 5.33609 22.4523C5.06332 22.6569 4.90989 22.9638 4.92694 23.3048C4.92694 23.5605 5.06332 23.7991 5.2679 23.9526C5.48953 24.1572 6.01803 24.3447 6.85338 24.5151C8.91625 24.9585 10.3824 25.4017 11.2859 25.8619C12.1894 26.3223 12.8373 26.8849 13.2294 27.5498C13.6386 28.2317 13.8431 29.0159 13.8431 29.8001C13.8431 30.7548 13.5533 31.6925 13.0248 32.4937C12.4622 33.3291 11.678 33.9769 10.7575 34.369C9.78565 34.7953 8.5582 35.0169 7.09205 35.0169C4.50073 35.0169 2.71067 34.5225 1.70482 33.5167C0.698977 32.4937 0.136386 31.2321 0 29.6978Z" fill="white"/>
<path d="M22.6741 28.5043L26.7998 29.7488C26.5782 30.7887 26.1178 31.7776 25.4871 32.647C24.9075 33.4142 24.1403 34.0108 23.2708 34.403C22.3843 34.7951 21.2591 34.9997 19.8953 34.9997C18.2416 34.9997 16.8778 34.761 15.8378 34.2836C14.7808 33.8063 13.8772 32.9538 13.1101 31.7435C12.3429 30.533 11.9678 28.9816 11.9678 27.0893C11.9678 24.5662 12.6328 22.6226 13.9796 21.2758C15.3264 19.929 17.2187 19.2471 19.6736 19.2471C21.6001 19.2471 23.1004 19.6392 24.2085 20.4063C25.2995 21.1906 26.1178 22.384 26.6634 23.9865L22.5037 24.9071C22.4013 24.5491 22.248 24.1911 22.0434 23.8842C21.7876 23.5262 21.4637 23.2535 21.0716 23.0488C20.6795 22.8443 20.2362 22.759 19.793 22.759C18.7189 22.759 17.9006 23.1853 17.338 24.0547C16.9119 24.6855 16.6902 25.6913 16.6902 27.0552C16.6902 28.743 16.946 29.9023 17.4574 30.533C17.9688 31.1638 18.6848 31.4707 19.6225 31.4707C20.526 31.4707 21.208 31.215 21.6683 30.7206C22.1286 30.1921 22.4696 29.459 22.6741 28.5043ZM32.3064 19.5029H37.0117V24.8389H42.1602V19.5029H46.8997V34.744H42.1602V28.5725H37.0117V34.744H32.3064V19.5029Z" fill="white"/>
<path d="M46.2518 27.1233C46.2518 24.6343 46.9508 22.6908 48.3317 21.3099C49.7126 19.929 51.656 19.23 54.1281 19.23C56.6683 19.23 58.6117 19.9119 59.9926 21.2758C61.3736 22.6397 62.0555 24.5491 62.0555 27.004C62.0555 28.7941 61.7487 30.2432 61.152 31.3854C60.5723 32.5106 59.6687 33.4312 58.5606 34.0449C57.4184 34.6757 56.0034 34.9997 54.3156 34.9997C52.5938 34.9997 51.1787 34.7269 50.0535 34.1813C48.8943 33.6017 47.9395 32.6981 47.3088 31.59C46.6098 30.3966 46.2518 28.9134 46.2518 27.1233ZM50.9571 27.1404C50.9571 28.6747 51.2469 29.7828 51.8095 30.4648C52.3721 31.1297 53.1564 31.4707 54.1451 31.4707C55.1509 31.4707 55.9352 31.1467 56.4978 30.4819C57.0604 29.817 57.3331 28.6406 57.3331 26.9358C57.3331 25.5037 57.0433 24.4468 56.4637 23.799C55.8841 23.1341 55.0998 22.8101 54.111 22.8101C53.2415 22.776 52.4062 23.1511 51.8266 23.816C51.2469 24.4809 50.9571 25.589 50.9571 27.1404ZM66.8801 27.1233C66.8801 24.6343 67.5791 22.6908 68.96 21.3099C70.3409 19.929 72.2848 19.23 74.7565 19.23C77.2968 19.23 79.2575 19.9119 80.6211 21.2758C81.9847 22.6397 82.684 24.5491 82.684 27.004C82.684 28.7941 82.3767 30.2432 81.7803 31.3854C81.2007 32.5106 80.297 33.4312 79.1889 34.0449C78.0465 34.6757 76.6318 34.9997 74.9441 34.9997C73.2221 34.9997 71.8074 34.7269 70.6818 34.1813C69.5226 33.6017 68.5679 32.6981 67.9371 31.59C67.2382 30.3966 66.8801 28.9134 66.8801 27.1233ZM71.5855 27.1404C71.5855 28.6747 71.8753 29.7828 72.4381 30.4648C73.0002 31.1297 73.7849 31.4707 74.7733 31.4707C75.7792 31.4707 76.5639 31.1467 77.126 30.4819C77.6888 29.817 77.9618 28.6406 77.9618 26.9358C77.9618 25.5037 77.672 24.4468 77.0924 23.799C76.5121 23.1341 75.7281 22.8101 74.7397 22.8101C73.8696 22.776 73.0177 23.1511 72.4549 23.816C71.8753 24.4809 71.5855 25.589 71.5855 27.1404Z" fill="white"/>
<path d="M82.1899 19.5029H86.8946V30.9934H94.2425V34.744H82.1724V19.5029H82.1899Z" fill="white"/>
<path d="M77.0036 18.6232C81.7405 15.0534 83.2014 9.00182 80.2663 5.10677C77.3305 1.21171 71.111 0.948107 66.3738 4.518C61.6366 8.0879 60.1758 14.1395 63.111 18.0345C66.0463 21.9296 72.266 22.1932 77.0036 18.6232Z" fill="black"/>
<path d="M77.0036 18.6232C81.7405 15.0534 83.2014 9.00182 80.2663 5.10677C77.3305 1.21171 71.111 0.948107 66.3738 4.518C61.6366 8.0879 60.1758 14.1395 63.111 18.0345C66.0463 21.9296 72.266 22.1932 77.0036 18.6232Z" fill="black" stroke="white" stroke-miterlimit="10"/>
<path d="M66.8972 10.4502L68.602 9.2568L70.6993 12.2403C71.057 12.7176 71.33 13.2291 71.5344 13.7917C71.6534 14.2178 71.6198 14.6782 71.449 15.0873C71.2278 15.5988 70.8694 16.025 70.392 16.3318C69.8295 16.724 69.3521 16.9456 68.943 17.0138C68.5509 17.082 68.1417 17.0138 67.7666 16.8433C67.3575 16.6387 66.9995 16.3489 66.7267 15.9739L68.1928 14.61C68.3122 14.7975 68.4656 14.968 68.6361 15.1044C68.7554 15.1896 68.8918 15.2408 69.0452 15.2408C69.1646 15.2408 69.2839 15.1896 69.3692 15.1214C69.5396 15.0191 69.659 14.8145 69.642 14.61C69.5908 14.3202 69.4715 14.0303 69.2839 13.8087L66.8972 10.4502ZM72.0118 12.3425L73.563 11.1151C73.7338 11.3196 73.955 11.4731 74.1937 11.5583C74.5346 11.6606 74.893 11.5924 75.1828 11.3708C75.3872 11.2344 75.558 11.0469 75.6259 10.8082C75.7281 10.5013 75.558 10.1604 75.2507 10.0581C75.1996 10.0411 75.1485 10.024 75.0974 10.024C74.893 10.0069 74.5346 10.0922 74.0061 10.3138C73.1367 10.6719 72.4549 10.8082 71.9432 10.757C71.449 10.7059 70.9891 10.4502 70.7161 10.024C70.5117 9.7342 70.4095 9.39323 70.392 9.05226C70.392 8.66012 70.4942 8.26805 70.7161 7.94409C71.0402 7.48384 71.4322 7.0917 71.9096 6.78483C72.6257 6.29044 73.2564 6.05176 73.8017 6.05176C74.347 6.05176 74.8587 6.30748 75.3361 6.83598L73.8017 8.04643C73.4951 7.65429 72.9155 7.56903 72.5228 7.87591L72.4717 7.92708C72.3016 8.02935 72.1819 8.18279 72.114 8.37032C72.0629 8.50668 72.0972 8.66012 72.1819 8.77947C72.2505 8.86473 72.3527 8.93291 72.4717 8.93291C72.6082 8.94999 72.8469 8.88174 73.1878 8.7283C74.0404 8.37032 74.6886 8.16571 75.1317 8.09753C75.5069 8.02935 75.8989 8.06344 76.2566 8.21688C76.5807 8.35324 76.8537 8.59194 77.0406 8.88174C77.2793 9.22271 77.4158 9.63186 77.4333 10.0581C77.4501 10.5013 77.3304 10.9276 77.0924 11.3026C76.7851 11.7629 76.3931 12.155 75.9325 12.4619C74.9952 13.1097 74.228 13.3825 73.6141 13.2802C72.9491 13.1779 72.4038 12.837 72.0118 12.3425Z" fill="white"/>
</g>
<defs>
<clipPath id="clip0_57_1367">
<rect width="94.5" height="35" fill="white"/>
</clipPath>
</defs>
</svg>
