<svg width="25" height="25" viewBox="0 0 25 25" fill="none" xmlns="http://www.w3.org/2000/svg">
<g clip-path="url(#clip0_90_785)">
<path d="M24.8258 23.9979L15.363 14.6229C16.4873 13.356 17.2216 11.7913 17.4775 10.1169C17.7334 8.44254 17.5001 6.72987 16.8056 5.185C16.111 3.64012 14.9849 2.32885 13.5626 1.40895C12.1403 0.489059 10.4826 -0.000267941 8.78874 -0.000149117C7.63407 -0.00337094 6.49022 0.222491 5.42344 0.66436C4.35665 1.10623 3.38811 1.75533 2.5739 2.57407V2.57407C1.34471 3.80324 0.507625 5.36931 0.168491 7.07423C-0.170643 8.77915 0.00340945 10.5464 0.668639 12.1524C1.33387 13.7584 2.4604 15.131 3.90576 16.0968C5.35113 17.0625 7.05042 17.578 8.78874 17.578C10.8966 17.5833 12.9351 16.8249 14.527 15.4432L24.0016 24.8299C24.0555 24.8872 24.1204 24.9331 24.1925 24.9647C24.2645 24.9964 24.3421 25.0132 24.4208 25.0142C24.4995 25.0152 24.5775 25.0004 24.6503 24.9706C24.7231 24.9408 24.7892 24.8966 24.8446 24.8407C24.8999 24.7848 24.9435 24.7183 24.9726 24.6453C25.0017 24.5722 25.0158 24.494 25.0141 24.4153C25.0123 24.3367 24.9948 24.2592 24.9624 24.1875C24.9301 24.1157 24.8836 24.0513 24.8258 23.9979V23.9979ZM3.40203 14.1756C1.97378 12.7472 1.17143 10.8099 1.17143 8.78989C1.17143 6.76989 1.97378 4.83261 3.40203 3.40415V3.40415C4.83041 1.9755 6.76782 1.17279 8.78805 1.17261C9.78837 1.17252 10.7789 1.36946 11.7031 1.75218C12.6273 2.1349 13.4671 2.69591 14.1745 3.40317C14.8819 4.11044 15.443 4.95011 15.8259 5.87425C16.2088 6.79838 16.4059 7.78889 16.406 8.7892C16.4061 9.78952 16.2092 10.7801 15.8265 11.7043C15.4437 12.6285 14.8827 13.4682 14.1755 14.1756C12.747 15.6039 10.8097 16.4062 8.78972 16.4062C6.76972 16.4062 4.83244 15.6039 3.40398 14.1756H3.40203Z" fill="white"/>
</g>
<defs>
<clipPath id="clip0_90_785">
<rect width="25" height="25" fill="white"/>
</clipPath>
</defs>
</svg>
